# xmcd
#
# Track frame offsets: 
#        183
#        17338
#        31793
#        40943
#        60240
#        71865
#        91793
#        110255
#        131853
#        150295
#
# Disc length: 2268 seconds
#
# Revision: 1
# Processed by: cddbd v1.5.2PL0 Copyright (c) Steve Scherf et al.
# Submitted via: ExactAudioCopy v1.3
#
DISCID=6e08da0a
DTITLE=Garth Brooks - The Chase
DYEAR=1992
DGENRE=Country
TTITLE0=We Shall Be Free
TTITLE1=Somewhere Other Than The Night
TTITLE2=Mr. Right
TTITLE3=Every Now And Then
TTITLE4=Walking After Midnight
TTITLE5=Dixie Chicken
TTITLE6=Learning To Live Again
TTITLE7=That Summer
TTITLE8=Night Rider's Lament
TTITLE9=Face To Face
EXTD=
EXTT0=
EXTT1=
EXTT2=
EXTT3=
EXTT4=
EXTT5=
EXTT6=
EXTT7=
EXTT8=
EXTT9=
PLAYORDER=
